<?xml version="1.0" encoding="utf-8"?>
<!-- Generator: Adobe Illustrator 14.0.0, SVG Export Plug-In . SVG Version: 6.00 Build 43363)  -->
<!DOCTYPE svg PUBLIC "-//W3C//DTD SVG 1.1//EN" "http://www.w3.org/Graphics/SVG/1.1/DTD/svg11.dtd">
<svg version="1.1" id="Layer_1" xmlns="http://www.w3.org/2000/svg" xmlns:xlink="http://www.w3.org/1999/xlink" x="0px" y="0px"
	 width="204.09px" height="113.39px" viewBox="0 0 204.09 113.39" enable-background="new 0 0 204.09 113.39" xml:space="preserve">
<g>
	<path fill="#4C5C65" d="M94.023,59.408V43.283h-3.616v-3.527h10.917v3.527H97.66v16.125H94.023z"/>
	<path fill="#4C5C65" d="M101.996,59.408V44.875h3.165v1.319c0.461-0.67,0.924-1.136,1.389-1.398s1.057-0.393,1.777-0.393h0.279
		v3.384c-0.706,0.027-1.294,0.178-1.764,0.451c-0.455,0.228-0.82,0.602-1.094,1.121c-0.187,0.415-0.279,1.151-0.279,2.208v7.84
		H101.996z"/>
	<path fill="#4C5C65" d="M110.189,43.194v-3.192h3.473v3.192H110.189z M110.189,59.408V44.875h3.473v14.533H110.189z"/>
	<path fill="#4C5C65" d="M118.789,59.408V43.283h-3.617v-3.527h10.918v3.527h-3.664v16.125H118.789z"/>
	<path fill="#4C5C65" d="M140.875,53.701h-11.287c0.242,0.627,0.514,1.103,0.814,1.425c0.788,0.896,1.815,1.343,3.082,1.343
		c0.725,0,1.397-0.141,2.018-0.423c0.414-0.191,0.807-0.468,1.176-0.832h3.861c-0.378,0.911-0.809,1.619-1.291,2.125
		c-0.748,0.802-1.627,1.427-2.636,1.876c-1.009,0.448-2.043,0.672-3.101,0.672c-1.367,0-2.636-0.344-3.807-1.031
		c-1.172-0.688-2.1-1.623-2.783-2.803s-1.025-2.461-1.025-3.842c0-1.408,0.345-2.711,1.033-3.91
		c0.688-1.199,1.619-2.147,2.795-2.847s2.457-1.049,3.842-1.049c1.336,0,2.578,0.343,3.729,1.03
		c1.151,0.686,2.067,1.611,2.751,2.774c0.684,1.163,1.025,2.415,1.025,3.755c0,0.265-0.047,0.732-0.143,1.403L140.875,53.701z
		 M129.533,50.59h8.012c-0.228-0.618-0.508-1.093-0.84-1.425c-0.812-0.896-1.849-1.343-3.111-1.343c-1.326,0-2.426,0.493-3.301,1.48
		C129.979,49.647,129.725,50.077,129.533,50.59z"/>
	<path fill="#4C5C65" d="M153.581,54.678h3.917c-0.246,0.652-0.464,1.149-0.652,1.494c-0.189,0.344-0.448,0.705-0.776,1.083
		c-0.747,0.843-1.624,1.493-2.628,1.948c-1.006,0.456-2.053,0.684-3.142,0.684c-1.408,0-2.71-0.348-3.903-1.042
		s-2.139-1.642-2.834-2.84c-0.694-1.199-1.042-2.5-1.042-3.903c0-1.399,0.345-2.69,1.032-3.873s1.625-2.116,2.81-2.799
		s2.47-1.025,3.855-1.025c0.747,0,1.478,0.107,2.19,0.322c0.714,0.214,1.387,0.523,2.021,0.927s1.198,0.894,1.695,1.468
		c0.328,0.379,0.588,0.749,0.779,1.109c0.191,0.361,0.39,0.851,0.595,1.472h-3.917c-0.424-0.67-0.895-1.151-1.411-1.442
		c-0.518-0.292-1.159-0.438-1.925-0.438c-0.825,0-1.556,0.181-2.194,0.543c-0.639,0.362-1.136,0.869-1.494,1.52
		c-0.357,0.651-0.536,1.391-0.536,2.22c0,1.252,0.407,2.293,1.22,3.122c0.814,0.829,1.834,1.243,3.06,1.243
		C151.672,56.469,152.766,55.872,153.581,54.678z"/>
	<path fill="#4C5C65" d="M159.723,59.408V39.755h3.473v6.217c0.373-0.447,0.783-0.774,1.23-0.979
		c0.752-0.393,1.583-0.589,2.494-0.589c0.807,0,1.594,0.172,2.362,0.516s1.407,0.814,1.917,1.412c0.533,0.615,0.9,1.291,1.102,2.027
		c0.2,0.736,0.301,1.797,0.301,3.182v7.868h-3.5v-7.104c0-1.084-0.099-1.953-0.295-2.606c-0.195-0.654-0.504-1.129-0.926-1.428
		s-0.985-0.448-1.691-0.448c-1.107,0-1.919,0.421-2.434,1.264c-0.21,0.333-0.355,0.73-0.438,1.192s-0.123,1.156-0.123,2.081v7.05
		H159.723z"/>
	<path fill="#4C5C65" d="M125.506,66.535h-1.328c-0.344-0.459-0.67-0.805-0.98-1.037c-0.442-0.344-0.94-0.609-1.494-0.797
		c-0.547-0.184-1.104-0.274-1.668-0.274c-0.885,0-1.715,0.229-2.486,0.685c-0.771,0.457-1.387,1.068-1.842,1.835
		c-0.457,0.767-0.686,1.593-0.686,2.478c0,0.891,0.232,1.727,0.697,2.507c0.459,0.774,1.076,1.392,1.852,1.851
		c0.779,0.46,1.618,0.689,2.515,0.689c0.774,0,1.527-0.186,2.258-0.557c0.398-0.204,0.721-0.412,0.968-0.622
		c0.246-0.21,0.549-0.542,0.908-0.996h1.32c-0.255,0.442-0.471,0.774-0.648,0.996c-0.177,0.222-0.406,0.462-0.688,0.722
		c-1.224,1.063-2.612,1.594-4.167,1.594c-1.135,0-2.178-0.273-3.129-0.821c-0.952-0.548-1.703-1.298-2.254-2.249
		c-0.551-0.952-0.826-1.99-0.826-3.113c0-1.117,0.275-2.146,0.826-3.088s1.301-1.684,2.25-2.229
		c0.948-0.545,1.987-0.818,3.116-0.818c1.245,0,2.382,0.327,3.411,0.98c0.626,0.42,1.138,0.879,1.536,1.377
		C125.16,65.885,125.34,66.182,125.506,66.535z"/>
	<path fill="#4C5C65" d="M132.223,66.377c0.841,0,1.619,0.208,2.336,0.623s1.285,0.976,1.706,1.681
		c0.421,0.706,0.631,1.468,0.631,2.287c0,0.83-0.208,1.603-0.622,2.315c-0.416,0.715-0.975,1.28-1.678,1.698
		c-0.702,0.417-1.466,0.626-2.291,0.626c-0.818,0-1.585-0.207-2.299-0.622c-0.714-0.403-1.279-0.959-1.697-1.664
		c-0.418-0.706-0.627-1.468-0.627-2.287c0-0.825,0.207-1.594,0.623-2.308c0.409-0.719,0.963-1.291,1.66-1.714
		C130.662,66.589,131.414,66.377,132.223,66.377z M132.305,67.515c-0.646,0.022-1.23,0.19-1.751,0.507
		c-0.526,0.31-0.937,0.73-1.233,1.262c-0.295,0.531-0.443,1.115-0.443,1.751c0,0.626,0.152,1.2,0.457,1.727
		c0.31,0.531,0.729,0.949,1.258,1.253c0.527,0.305,1.104,0.457,1.73,0.457c0.625,0,1.197-0.154,1.718-0.465
		c0.515-0.315,0.92-0.744,1.216-1.287c0.297-0.542,0.444-1.143,0.444-1.801c0-0.598-0.151-1.159-0.452-1.686
		c-0.302-0.525-0.71-0.943-1.225-1.253s-1.065-0.465-1.652-0.465H132.305z"/>
	<path fill="#4C5C65" d="M139.506,75.408v-8.848h1.121v1.262c0.315-0.51,0.674-0.872,1.074-1.088
		c0.402-0.216,0.924-0.324,1.565-0.324c0.702,0,1.281,0.146,1.735,0.437c0.453,0.29,0.811,0.751,1.07,1.382
		c0.326-0.643,0.723-1.104,1.188-1.387c0.465-0.287,1.054-0.432,1.768-0.432c0.775,0,1.431,0.151,1.967,0.453
		c0.537,0.301,0.941,0.748,1.213,1.34c0.271,0.593,0.406,1.317,0.406,2.176v5.029h-1.195v-4.93c0-1.977-0.791-2.964-2.374-2.964
		c-0.907,0-1.583,0.335-2.025,1.005c-0.144,0.243-0.239,0.492-0.286,0.746c-0.047,0.255-0.07,0.659-0.07,1.213v4.93h-1.213v-5.055
		c0-0.486-0.038-0.866-0.115-1.137c-0.1-0.332-0.266-0.626-0.498-0.881c-0.232-0.26-0.506-0.461-0.818-0.605
		s-0.643-0.216-0.992-0.216c-0.376,0-0.738,0.086-1.087,0.257c-0.354,0.184-0.626,0.416-0.813,0.697
		c-0.166,0.232-0.279,0.48-0.34,0.743c-0.062,0.263-0.092,0.644-0.092,1.142v5.055H139.506z"/>
	<path fill="#4C5C65" d="M155.65,66.561h1.12v1.535c0.255-0.359,0.476-0.609,0.664-0.747c0.825-0.647,1.782-0.972,2.872-0.972
		c0.676,0,1.325,0.146,1.951,0.44c0.625,0.304,1.176,0.73,1.651,1.278c0.702,0.785,1.054,1.76,1.054,2.922
		c0,0.842-0.211,1.611-0.635,2.312s-1,1.255-1.73,1.665c-0.725,0.409-1.516,0.613-2.374,0.613c-1.112,0-2.03-0.334-2.756-1.004
		c-0.21-0.183-0.421-0.465-0.631-0.847v4.748h-1.187V66.561z M160.224,74.471c0.521-0.021,0.996-0.12,1.428-0.295
		c0.432-0.174,0.808-0.416,1.129-0.727c0.321-0.31,0.567-0.67,0.739-1.083c0.171-0.412,0.257-0.862,0.257-1.349
		c0-0.625-0.156-1.209-0.47-1.752c-0.313-0.542-0.736-0.968-1.273-1.277c-0.543-0.316-1.129-0.474-1.76-0.474
		c-0.658,0-1.256,0.152-1.793,0.456c-0.537,0.305-0.959,0.723-1.266,1.254s-0.461,1.123-0.461,1.776
		c0,0.636,0.152,1.219,0.457,1.747c0.304,0.529,0.717,0.947,1.236,1.258s1.09,0.465,1.71,0.465H160.224z"/>
	<path fill="#4C5C65" d="M167.588,75.408V63.473h1.188v11.936H167.588z"/>
	<path fill="#4C5C65" d="M171.822,65.514v-2.041h1.187v2.041H171.822z M171.822,75.408v-8.84h1.187v8.84H171.822z"/>
</g>
<g>
	<g>
		<linearGradient id="SVGID_1_" gradientUnits="userSpaceOnUse" x1="60.9595" y1="38.981" x2="85.5083" y2="81.5008">
			<stop  offset="0.1" style="stop-color:#E23D96"/>
			<stop  offset="0.9" style="stop-color:#F7941E"/>
		</linearGradient>
		<polygon fill="url(#SVGID_1_)" points="67.097,92.13 67.096,49.61 54.821,56.697 42.548,49.61 79.37,28.351 79.371,70.869 		"/>
		<path fill="#FFFFFF" d="M67.097,93.13c-0.086,0-0.173-0.011-0.259-0.034c-0.437-0.117-0.741-0.514-0.741-0.966l0-40.788
			l-10.775,6.221c-0.31,0.179-0.69,0.179-1,0l-12.273-7.087c-0.31-0.179-0.5-0.509-0.5-0.866s0.19-0.688,0.5-0.866l36.822-21.26
			c0.31-0.179,0.69-0.179,1,0s0.5,0.509,0.5,0.866l0,42.519c0,0.176-0.046,0.348-0.134,0.5L67.963,92.63
			C67.781,92.944,67.447,93.13,67.097,93.13L67.097,93.13z M67.096,48.61c0.173,0,0.345,0.044,0.5,0.134
			c0.31,0.179,0.5,0.509,0.5,0.866l0,38.787l10.274-17.796l0-40.519L44.548,49.61l10.273,5.932l11.775-6.798
			C66.751,48.655,66.923,48.61,67.096,48.61L67.096,48.61z"/>
	</g>
	<g>
		<linearGradient id="SVGID_2_" gradientUnits="userSpaceOnUse" x1="17.9985" y1="70.8711" x2="67.0967" y2="70.8711">
			<stop  offset="0.2" style="stop-color:#A154A1"/>
			<stop  offset="0.9" style="stop-color:#0072B4"/>
		</linearGradient>
		<polygon fill="url(#SVGID_2_)" points="17.999,49.612 54.821,70.871 54.821,56.697 67.097,49.611 67.096,92.13 30.274,70.872 		
			"/>
		<path fill="#FFFFFF" d="M67.096,93.13c-0.173,0-0.345-0.045-0.5-0.134L29.774,71.738c-0.152-0.088-0.278-0.214-0.366-0.366
			l-12.275-21.26c-0.226-0.392-0.161-0.887,0.159-1.207c0.319-0.321,0.814-0.386,1.207-0.159l35.323,20.393V56.697
			c0-0.357,0.19-0.688,0.5-0.866l12.275-7.086c0.31-0.179,0.69-0.178,1,0c0.31,0.179,0.5,0.509,0.5,0.866l0,42.519
			c0,0.357-0.19,0.688-0.5,0.866C67.441,93.085,67.269,93.13,67.096,93.13L67.096,93.13z M31.006,70.14l35.09,20.258l0-39.054
			l-10.275,5.932v13.596c0,0.357-0.19,0.688-0.5,0.866c-0.31,0.178-0.69,0.178-1,0l-33.59-19.393L31.006,70.14L31.006,70.14z"/>
	</g>
	<g>
		<linearGradient id="SVGID_3_" gradientUnits="userSpaceOnUse" x1="64.0283" y1="65.5557" x2="45.6167" y2="33.6658">
			<stop  offset="0.1" style="stop-color:#FFD400"/>
			<stop  offset="0.9" style="stop-color:#F7941E"/>
		</linearGradient>
		<polygon fill="url(#SVGID_3_)" points="79.371,28.351 42.548,49.61 54.823,56.698 54.821,70.871 18,49.611 54.821,28.352 		"/>
		<path fill="#FFFFFF" d="M54.821,71.871c-0.173,0-0.345-0.045-0.5-0.134L17.5,50.478c-0.31-0.179-0.5-0.509-0.5-0.866
			s0.19-0.688,0.5-0.866l36.822-21.26c0.152-0.087,0.324-0.134,0.5-0.134l24.549-0.001c0.453,0,0.849,0.304,0.966,0.741
			s-0.074,0.898-0.466,1.125L44.548,49.61l10.775,6.222c0.31,0.179,0.5,0.509,0.5,0.866l-0.001,14.173c0,0.357-0.19,0.688-0.5,0.866
			C55.167,71.826,54.994,71.871,54.821,71.871L54.821,71.871z M20,49.611l33.822,19.527l0.001-11.863l-11.775-6.799
			c-0.31-0.179-0.5-0.509-0.5-0.866s0.19-0.688,0.5-0.866l33.59-19.394l-20.549,0.001L20,49.611L20,49.611z"/>
	</g>
</g>
</svg>
